G04 #@! TF.FileFunction,Soldermask,Bot*
%FSLAX46Y46*%
G04 Gerber Fmt 4.6, Leading zero omitted, Abs format (unit mm)*
G04 Created by KiCad (PCBNEW 4.0.6) date 06/14/17 00:59:11*
%MOMM*%
%LPD*%
G01*
G04 APERTURE LIST*
%ADD10C,0.100000*%
%ADD11R,1.650000X1.400000*%
%ADD12C,1.600000*%
%ADD13R,1.100000X1.700000*%
%ADD14C,1.924000*%
%ADD15R,1.700000X1.000000*%
%ADD16C,1.800000*%
%ADD17R,1.800000X0.750000*%
%ADD18R,2.381000X0.933000*%
G04 APERTURE END LIST*
D10*
D11*
X96520000Y-135525000D03*
X96520000Y-137525000D03*
X83185000Y-139970000D03*
X83185000Y-141970000D03*
X62230000Y-138160000D03*
X62230000Y-136160000D03*
X64770000Y-138160000D03*
X64770000Y-136160000D03*
X67310000Y-131175000D03*
X67310000Y-129175000D03*
X67310000Y-121015000D03*
X67310000Y-119015000D03*
X67310000Y-110855000D03*
X67310000Y-108855000D03*
X78105000Y-131175000D03*
X78105000Y-129175000D03*
X78105000Y-121015000D03*
X78105000Y-119015000D03*
X78105000Y-110855000D03*
X78105000Y-108855000D03*
X80645000Y-131175000D03*
X80645000Y-129175000D03*
X80645000Y-121015000D03*
X80645000Y-119015000D03*
X80645000Y-110855000D03*
X80645000Y-108855000D03*
X81280000Y-94250000D03*
X81280000Y-96250000D03*
D12*
X74930000Y-93345000D03*
X74930000Y-97845000D03*
D13*
X103190000Y-92075000D03*
X105090000Y-92075000D03*
D14*
X106045000Y-139065000D03*
X108585000Y-141605000D03*
X111125000Y-139065000D03*
X108585000Y-136525000D03*
D15*
X87850000Y-142875000D03*
X87850000Y-141605000D03*
X87850000Y-140335000D03*
X87850000Y-139065000D03*
X93150000Y-139065000D03*
X93150000Y-140335000D03*
X93150000Y-141605000D03*
X93150000Y-142875000D03*
D16*
X111125000Y-128905000D03*
X108585000Y-128905000D03*
X106045000Y-128905000D03*
X44450000Y-134620000D03*
X44450000Y-132080000D03*
X44450000Y-129540000D03*
X44450000Y-127000000D03*
X44450000Y-124460000D03*
X44450000Y-121920000D03*
X44450000Y-119380000D03*
X44450000Y-116840000D03*
X44450000Y-114300000D03*
X44450000Y-111760000D03*
X44450000Y-109220000D03*
X44450000Y-106680000D03*
X44450000Y-104140000D03*
X44450000Y-101600000D03*
X44450000Y-99060000D03*
X44450000Y-96520000D03*
X44450000Y-93980000D03*
X44450000Y-91440000D03*
X44450000Y-88900000D03*
X44450000Y-86360000D03*
X44450000Y-83820000D03*
X44450000Y-81280000D03*
X44450000Y-78740000D03*
X44450000Y-76200000D03*
X59690000Y-76200000D03*
X59690000Y-78740000D03*
X59690000Y-81280000D03*
X59690000Y-83820000D03*
X59690000Y-86360000D03*
X59690000Y-88900000D03*
X59690000Y-91440000D03*
X59690000Y-93980000D03*
X59690000Y-96520000D03*
X59690000Y-99060000D03*
X59690000Y-101600000D03*
X59690000Y-104140000D03*
X59690000Y-106680000D03*
X59690000Y-109220000D03*
X59690000Y-111760000D03*
X59690000Y-114300000D03*
X59690000Y-116840000D03*
X59690000Y-119380000D03*
X59690000Y-121920000D03*
X59690000Y-124460000D03*
X59690000Y-127000000D03*
X59690000Y-129540000D03*
X59690000Y-132080000D03*
X59690000Y-134620000D03*
D17*
X69815000Y-127620000D03*
X69815000Y-126970000D03*
X69815000Y-126320000D03*
X69815000Y-125670000D03*
X69815000Y-125020000D03*
X69815000Y-124370000D03*
X69815000Y-123720000D03*
X75565000Y-123720000D03*
X75565000Y-124370000D03*
X75565000Y-125020000D03*
X75565000Y-125670000D03*
X75565000Y-126320000D03*
X75565000Y-126970000D03*
X75565000Y-127620000D03*
X69815000Y-117460000D03*
X69815000Y-116810000D03*
X69815000Y-116160000D03*
X69815000Y-115510000D03*
X69815000Y-114860000D03*
X69815000Y-114210000D03*
X69815000Y-113560000D03*
X75565000Y-113560000D03*
X75565000Y-114210000D03*
X75565000Y-114860000D03*
X75565000Y-115510000D03*
X75565000Y-116160000D03*
X75565000Y-116810000D03*
X75565000Y-117460000D03*
X69815000Y-107300000D03*
X69815000Y-106650000D03*
X69815000Y-106000000D03*
X69815000Y-105350000D03*
X69815000Y-104700000D03*
X69815000Y-104050000D03*
X69815000Y-103400000D03*
X75565000Y-103400000D03*
X75565000Y-104050000D03*
X75565000Y-104700000D03*
X75565000Y-105350000D03*
X75565000Y-106000000D03*
X75565000Y-106650000D03*
X75565000Y-107300000D03*
D18*
X87630000Y-100330000D03*
X87630000Y-99060000D03*
X87630000Y-97790000D03*
X87630000Y-96520000D03*
X87630000Y-95250000D03*
X87630000Y-93980000D03*
X87630000Y-92710000D03*
X87630000Y-91440000D03*
X87630000Y-90170000D03*
X87630000Y-88900000D03*
X87630000Y-87630000D03*
X87630000Y-86360000D03*
X97003000Y-86360000D03*
X97003000Y-87630000D03*
X97003000Y-88900000D03*
X97003000Y-90170000D03*
X97003000Y-91440000D03*
X97003000Y-92710000D03*
X97003000Y-93980000D03*
X97003000Y-95250000D03*
X97003000Y-96520000D03*
X97003000Y-97790000D03*
X97003000Y-99060000D03*
X97003000Y-100330000D03*
D16*
X111760000Y-109220000D03*
X114300000Y-109220000D03*
X116840000Y-109220000D03*
X119380000Y-109220000D03*
X121920000Y-109220000D03*
X124460000Y-109220000D03*
X127000000Y-109220000D03*
X129540000Y-109220000D03*
X132080000Y-109220000D03*
X134620000Y-109220000D03*
X137160000Y-109220000D03*
X139700000Y-109220000D03*
X142240000Y-109220000D03*
X144780000Y-109220000D03*
X147320000Y-109220000D03*
X149860000Y-109220000D03*
X152400000Y-109220000D03*
X154940000Y-109220000D03*
X154940000Y-93980000D03*
X152400000Y-93980000D03*
X149860000Y-93980000D03*
X147320000Y-93980000D03*
X144780000Y-93980000D03*
X142240000Y-93980000D03*
X139700000Y-93980000D03*
X137160000Y-93980000D03*
X134620000Y-93980000D03*
X132080000Y-93980000D03*
X129540000Y-93980000D03*
X127000000Y-93980000D03*
X124460000Y-93980000D03*
X121920000Y-93980000D03*
X119380000Y-93980000D03*
X116840000Y-93980000D03*
X114300000Y-93980000D03*
X111760000Y-93980000D03*
X86360000Y-109140000D03*
X88900000Y-109140000D03*
X91440000Y-109140000D03*
X93980000Y-109140000D03*
X96520000Y-109140000D03*
X96520000Y-78740000D03*
X93980000Y-78740000D03*
X91440000Y-78740000D03*
X88900000Y-78740000D03*
X86360000Y-78740000D03*
M02*
