G04 #@! TF.FileFunction,Legend,Bot*
%FSLAX46Y46*%
G04 Gerber Fmt 4.6, Leading zero omitted, Abs format (unit mm)*
G04 Created by KiCad (PCBNEW 4.0.6) date 06/14/17 00:59:11*
%MOMM*%
%LPD*%
G01*
G04 APERTURE LIST*
%ADD10C,0.100000*%
%ADD11C,0.120000*%
%ADD12C,0.150000*%
%ADD13C,0.500000*%
%ADD14C,1.000000*%
%ADD15R,1.650000X1.400000*%
%ADD16C,1.600000*%
%ADD17R,1.100000X1.700000*%
%ADD18C,1.924000*%
%ADD19R,1.700000X1.000000*%
%ADD20C,1.800000*%
%ADD21R,1.800000X0.750000*%
%ADD22R,2.381000X0.933000*%
G04 APERTURE END LIST*
D10*
D11*
X95670000Y-137025000D02*
X95670000Y-136025000D01*
X97370000Y-136025000D02*
X97370000Y-137025000D01*
X82335000Y-141470000D02*
X82335000Y-140470000D01*
X84035000Y-140470000D02*
X84035000Y-141470000D01*
X63080000Y-136660000D02*
X63080000Y-137660000D01*
X61380000Y-137660000D02*
X61380000Y-136660000D01*
X65620000Y-136660000D02*
X65620000Y-137660000D01*
X63920000Y-137660000D02*
X63920000Y-136660000D01*
X68160000Y-129675000D02*
X68160000Y-130675000D01*
X66460000Y-130675000D02*
X66460000Y-129675000D01*
X68160000Y-119515000D02*
X68160000Y-120515000D01*
X66460000Y-120515000D02*
X66460000Y-119515000D01*
X68160000Y-109355000D02*
X68160000Y-110355000D01*
X66460000Y-110355000D02*
X66460000Y-109355000D01*
X78955000Y-129675000D02*
X78955000Y-130675000D01*
X77255000Y-130675000D02*
X77255000Y-129675000D01*
X78955000Y-119515000D02*
X78955000Y-120515000D01*
X77255000Y-120515000D02*
X77255000Y-119515000D01*
X78955000Y-109355000D02*
X78955000Y-110355000D01*
X77255000Y-110355000D02*
X77255000Y-109355000D01*
X81495000Y-129675000D02*
X81495000Y-130675000D01*
X79795000Y-130675000D02*
X79795000Y-129675000D01*
X81495000Y-119515000D02*
X81495000Y-120515000D01*
X79795000Y-120515000D02*
X79795000Y-119515000D01*
X81495000Y-109355000D02*
X81495000Y-110355000D01*
X79795000Y-110355000D02*
X79795000Y-109355000D01*
X80430000Y-95750000D02*
X80430000Y-94750000D01*
X82130000Y-94750000D02*
X82130000Y-95750000D01*
D12*
X79505495Y-95605600D02*
G75*
G03X79505495Y-95605600I-4524695J0D01*
G01*
D11*
X104740000Y-91195000D02*
X103540000Y-91195000D01*
X103540000Y-92955000D02*
X104740000Y-92955000D01*
D13*
X88118176Y-144348200D02*
G75*
G03X88118176Y-144348200I-234176J0D01*
G01*
D12*
X104368600Y-127228600D02*
X113639600Y-127228600D01*
X113639600Y-127228600D02*
X113614200Y-134416800D01*
X113614200Y-134416800D02*
X104267000Y-134239000D01*
X104267000Y-134239000D02*
X104343200Y-127381000D01*
X104343200Y-127381000D02*
X104444800Y-127203200D01*
X112839166Y-128193800D02*
G75*
G03X112839166Y-128193800I-240966J0D01*
G01*
D14*
X44614392Y-137007600D02*
G75*
G03X44614392Y-137007600I-113592J0D01*
G01*
D10*
X70040126Y-128397000D02*
G75*
G03X70040126Y-128397000I-215526J0D01*
G01*
X70040126Y-118237000D02*
G75*
G03X70040126Y-118237000I-215526J0D01*
G01*
X70040126Y-108077000D02*
G75*
G03X70040126Y-108077000I-215526J0D01*
G01*
D13*
X88220179Y-101777800D02*
G75*
G03X88220179Y-101777800I-488579J0D01*
G01*
D12*
X95377143Y-136358334D02*
X95424762Y-136310715D01*
X95472381Y-136167858D01*
X95472381Y-136072620D01*
X95424762Y-135929762D01*
X95329524Y-135834524D01*
X95234286Y-135786905D01*
X95043810Y-135739286D01*
X94900952Y-135739286D01*
X94710476Y-135786905D01*
X94615238Y-135834524D01*
X94520000Y-135929762D01*
X94472381Y-136072620D01*
X94472381Y-136167858D01*
X94520000Y-136310715D01*
X94567619Y-136358334D01*
X95472381Y-137310715D02*
X95472381Y-136739286D01*
X95472381Y-137025000D02*
X94472381Y-137025000D01*
X94615238Y-136929762D01*
X94710476Y-136834524D01*
X94758095Y-136739286D01*
X82042143Y-140803334D02*
X82089762Y-140755715D01*
X82137381Y-140612858D01*
X82137381Y-140517620D01*
X82089762Y-140374762D01*
X81994524Y-140279524D01*
X81899286Y-140231905D01*
X81708810Y-140184286D01*
X81565952Y-140184286D01*
X81375476Y-140231905D01*
X81280238Y-140279524D01*
X81185000Y-140374762D01*
X81137381Y-140517620D01*
X81137381Y-140612858D01*
X81185000Y-140755715D01*
X81232619Y-140803334D01*
X81232619Y-141184286D02*
X81185000Y-141231905D01*
X81137381Y-141327143D01*
X81137381Y-141565239D01*
X81185000Y-141660477D01*
X81232619Y-141708096D01*
X81327857Y-141755715D01*
X81423095Y-141755715D01*
X81565952Y-141708096D01*
X82137381Y-141136667D01*
X82137381Y-141755715D01*
X64087143Y-136993334D02*
X64134762Y-136945715D01*
X64182381Y-136802858D01*
X64182381Y-136707620D01*
X64134762Y-136564762D01*
X64039524Y-136469524D01*
X63944286Y-136421905D01*
X63753810Y-136374286D01*
X63610952Y-136374286D01*
X63420476Y-136421905D01*
X63325238Y-136469524D01*
X63230000Y-136564762D01*
X63182381Y-136707620D01*
X63182381Y-136802858D01*
X63230000Y-136945715D01*
X63277619Y-136993334D01*
X63182381Y-137326667D02*
X63182381Y-137945715D01*
X63563333Y-137612381D01*
X63563333Y-137755239D01*
X63610952Y-137850477D01*
X63658571Y-137898096D01*
X63753810Y-137945715D01*
X63991905Y-137945715D01*
X64087143Y-137898096D01*
X64134762Y-137850477D01*
X64182381Y-137755239D01*
X64182381Y-137469524D01*
X64134762Y-137374286D01*
X64087143Y-137326667D01*
X66627143Y-136993334D02*
X66674762Y-136945715D01*
X66722381Y-136802858D01*
X66722381Y-136707620D01*
X66674762Y-136564762D01*
X66579524Y-136469524D01*
X66484286Y-136421905D01*
X66293810Y-136374286D01*
X66150952Y-136374286D01*
X65960476Y-136421905D01*
X65865238Y-136469524D01*
X65770000Y-136564762D01*
X65722381Y-136707620D01*
X65722381Y-136802858D01*
X65770000Y-136945715D01*
X65817619Y-136993334D01*
X66055714Y-137850477D02*
X66722381Y-137850477D01*
X65674762Y-137612381D02*
X66389048Y-137374286D01*
X66389048Y-137993334D01*
X69167143Y-130008334D02*
X69214762Y-129960715D01*
X69262381Y-129817858D01*
X69262381Y-129722620D01*
X69214762Y-129579762D01*
X69119524Y-129484524D01*
X69024286Y-129436905D01*
X68833810Y-129389286D01*
X68690952Y-129389286D01*
X68500476Y-129436905D01*
X68405238Y-129484524D01*
X68310000Y-129579762D01*
X68262381Y-129722620D01*
X68262381Y-129817858D01*
X68310000Y-129960715D01*
X68357619Y-130008334D01*
X68262381Y-130913096D02*
X68262381Y-130436905D01*
X68738571Y-130389286D01*
X68690952Y-130436905D01*
X68643333Y-130532143D01*
X68643333Y-130770239D01*
X68690952Y-130865477D01*
X68738571Y-130913096D01*
X68833810Y-130960715D01*
X69071905Y-130960715D01*
X69167143Y-130913096D01*
X69214762Y-130865477D01*
X69262381Y-130770239D01*
X69262381Y-130532143D01*
X69214762Y-130436905D01*
X69167143Y-130389286D01*
X69167143Y-119848334D02*
X69214762Y-119800715D01*
X69262381Y-119657858D01*
X69262381Y-119562620D01*
X69214762Y-119419762D01*
X69119524Y-119324524D01*
X69024286Y-119276905D01*
X68833810Y-119229286D01*
X68690952Y-119229286D01*
X68500476Y-119276905D01*
X68405238Y-119324524D01*
X68310000Y-119419762D01*
X68262381Y-119562620D01*
X68262381Y-119657858D01*
X68310000Y-119800715D01*
X68357619Y-119848334D01*
X68262381Y-120705477D02*
X68262381Y-120515000D01*
X68310000Y-120419762D01*
X68357619Y-120372143D01*
X68500476Y-120276905D01*
X68690952Y-120229286D01*
X69071905Y-120229286D01*
X69167143Y-120276905D01*
X69214762Y-120324524D01*
X69262381Y-120419762D01*
X69262381Y-120610239D01*
X69214762Y-120705477D01*
X69167143Y-120753096D01*
X69071905Y-120800715D01*
X68833810Y-120800715D01*
X68738571Y-120753096D01*
X68690952Y-120705477D01*
X68643333Y-120610239D01*
X68643333Y-120419762D01*
X68690952Y-120324524D01*
X68738571Y-120276905D01*
X68833810Y-120229286D01*
X69167143Y-109688334D02*
X69214762Y-109640715D01*
X69262381Y-109497858D01*
X69262381Y-109402620D01*
X69214762Y-109259762D01*
X69119524Y-109164524D01*
X69024286Y-109116905D01*
X68833810Y-109069286D01*
X68690952Y-109069286D01*
X68500476Y-109116905D01*
X68405238Y-109164524D01*
X68310000Y-109259762D01*
X68262381Y-109402620D01*
X68262381Y-109497858D01*
X68310000Y-109640715D01*
X68357619Y-109688334D01*
X68262381Y-110021667D02*
X68262381Y-110688334D01*
X69262381Y-110259762D01*
X79962143Y-130008334D02*
X80009762Y-129960715D01*
X80057381Y-129817858D01*
X80057381Y-129722620D01*
X80009762Y-129579762D01*
X79914524Y-129484524D01*
X79819286Y-129436905D01*
X79628810Y-129389286D01*
X79485952Y-129389286D01*
X79295476Y-129436905D01*
X79200238Y-129484524D01*
X79105000Y-129579762D01*
X79057381Y-129722620D01*
X79057381Y-129817858D01*
X79105000Y-129960715D01*
X79152619Y-130008334D01*
X79485952Y-130579762D02*
X79438333Y-130484524D01*
X79390714Y-130436905D01*
X79295476Y-130389286D01*
X79247857Y-130389286D01*
X79152619Y-130436905D01*
X79105000Y-130484524D01*
X79057381Y-130579762D01*
X79057381Y-130770239D01*
X79105000Y-130865477D01*
X79152619Y-130913096D01*
X79247857Y-130960715D01*
X79295476Y-130960715D01*
X79390714Y-130913096D01*
X79438333Y-130865477D01*
X79485952Y-130770239D01*
X79485952Y-130579762D01*
X79533571Y-130484524D01*
X79581190Y-130436905D01*
X79676429Y-130389286D01*
X79866905Y-130389286D01*
X79962143Y-130436905D01*
X80009762Y-130484524D01*
X80057381Y-130579762D01*
X80057381Y-130770239D01*
X80009762Y-130865477D01*
X79962143Y-130913096D01*
X79866905Y-130960715D01*
X79676429Y-130960715D01*
X79581190Y-130913096D01*
X79533571Y-130865477D01*
X79485952Y-130770239D01*
X79962143Y-119848334D02*
X80009762Y-119800715D01*
X80057381Y-119657858D01*
X80057381Y-119562620D01*
X80009762Y-119419762D01*
X79914524Y-119324524D01*
X79819286Y-119276905D01*
X79628810Y-119229286D01*
X79485952Y-119229286D01*
X79295476Y-119276905D01*
X79200238Y-119324524D01*
X79105000Y-119419762D01*
X79057381Y-119562620D01*
X79057381Y-119657858D01*
X79105000Y-119800715D01*
X79152619Y-119848334D01*
X80057381Y-120324524D02*
X80057381Y-120515000D01*
X80009762Y-120610239D01*
X79962143Y-120657858D01*
X79819286Y-120753096D01*
X79628810Y-120800715D01*
X79247857Y-120800715D01*
X79152619Y-120753096D01*
X79105000Y-120705477D01*
X79057381Y-120610239D01*
X79057381Y-120419762D01*
X79105000Y-120324524D01*
X79152619Y-120276905D01*
X79247857Y-120229286D01*
X79485952Y-120229286D01*
X79581190Y-120276905D01*
X79628810Y-120324524D01*
X79676429Y-120419762D01*
X79676429Y-120610239D01*
X79628810Y-120705477D01*
X79581190Y-120753096D01*
X79485952Y-120800715D01*
X79962143Y-109212143D02*
X80009762Y-109164524D01*
X80057381Y-109021667D01*
X80057381Y-108926429D01*
X80009762Y-108783571D01*
X79914524Y-108688333D01*
X79819286Y-108640714D01*
X79628810Y-108593095D01*
X79485952Y-108593095D01*
X79295476Y-108640714D01*
X79200238Y-108688333D01*
X79105000Y-108783571D01*
X79057381Y-108926429D01*
X79057381Y-109021667D01*
X79105000Y-109164524D01*
X79152619Y-109212143D01*
X80057381Y-110164524D02*
X80057381Y-109593095D01*
X80057381Y-109878809D02*
X79057381Y-109878809D01*
X79200238Y-109783571D01*
X79295476Y-109688333D01*
X79343095Y-109593095D01*
X79057381Y-110783571D02*
X79057381Y-110878810D01*
X79105000Y-110974048D01*
X79152619Y-111021667D01*
X79247857Y-111069286D01*
X79438333Y-111116905D01*
X79676429Y-111116905D01*
X79866905Y-111069286D01*
X79962143Y-111021667D01*
X80009762Y-110974048D01*
X80057381Y-110878810D01*
X80057381Y-110783571D01*
X80009762Y-110688333D01*
X79962143Y-110640714D01*
X79866905Y-110593095D01*
X79676429Y-110545476D01*
X79438333Y-110545476D01*
X79247857Y-110593095D01*
X79152619Y-110640714D01*
X79105000Y-110688333D01*
X79057381Y-110783571D01*
X82502143Y-129532143D02*
X82549762Y-129484524D01*
X82597381Y-129341667D01*
X82597381Y-129246429D01*
X82549762Y-129103571D01*
X82454524Y-129008333D01*
X82359286Y-128960714D01*
X82168810Y-128913095D01*
X82025952Y-128913095D01*
X81835476Y-128960714D01*
X81740238Y-129008333D01*
X81645000Y-129103571D01*
X81597381Y-129246429D01*
X81597381Y-129341667D01*
X81645000Y-129484524D01*
X81692619Y-129532143D01*
X82597381Y-130484524D02*
X82597381Y-129913095D01*
X82597381Y-130198809D02*
X81597381Y-130198809D01*
X81740238Y-130103571D01*
X81835476Y-130008333D01*
X81883095Y-129913095D01*
X82597381Y-131436905D02*
X82597381Y-130865476D01*
X82597381Y-131151190D02*
X81597381Y-131151190D01*
X81740238Y-131055952D01*
X81835476Y-130960714D01*
X81883095Y-130865476D01*
X82502143Y-119372143D02*
X82549762Y-119324524D01*
X82597381Y-119181667D01*
X82597381Y-119086429D01*
X82549762Y-118943571D01*
X82454524Y-118848333D01*
X82359286Y-118800714D01*
X82168810Y-118753095D01*
X82025952Y-118753095D01*
X81835476Y-118800714D01*
X81740238Y-118848333D01*
X81645000Y-118943571D01*
X81597381Y-119086429D01*
X81597381Y-119181667D01*
X81645000Y-119324524D01*
X81692619Y-119372143D01*
X82597381Y-120324524D02*
X82597381Y-119753095D01*
X82597381Y-120038809D02*
X81597381Y-120038809D01*
X81740238Y-119943571D01*
X81835476Y-119848333D01*
X81883095Y-119753095D01*
X81692619Y-120705476D02*
X81645000Y-120753095D01*
X81597381Y-120848333D01*
X81597381Y-121086429D01*
X81645000Y-121181667D01*
X81692619Y-121229286D01*
X81787857Y-121276905D01*
X81883095Y-121276905D01*
X82025952Y-121229286D01*
X82597381Y-120657857D01*
X82597381Y-121276905D01*
X82502143Y-109212143D02*
X82549762Y-109164524D01*
X82597381Y-109021667D01*
X82597381Y-108926429D01*
X82549762Y-108783571D01*
X82454524Y-108688333D01*
X82359286Y-108640714D01*
X82168810Y-108593095D01*
X82025952Y-108593095D01*
X81835476Y-108640714D01*
X81740238Y-108688333D01*
X81645000Y-108783571D01*
X81597381Y-108926429D01*
X81597381Y-109021667D01*
X81645000Y-109164524D01*
X81692619Y-109212143D01*
X82597381Y-110164524D02*
X82597381Y-109593095D01*
X82597381Y-109878809D02*
X81597381Y-109878809D01*
X81740238Y-109783571D01*
X81835476Y-109688333D01*
X81883095Y-109593095D01*
X81597381Y-110497857D02*
X81597381Y-111116905D01*
X81978333Y-110783571D01*
X81978333Y-110926429D01*
X82025952Y-111021667D01*
X82073571Y-111069286D01*
X82168810Y-111116905D01*
X82406905Y-111116905D01*
X82502143Y-111069286D01*
X82549762Y-111021667D01*
X82597381Y-110926429D01*
X82597381Y-110640714D01*
X82549762Y-110545476D01*
X82502143Y-110497857D01*
X80137143Y-94607143D02*
X80184762Y-94559524D01*
X80232381Y-94416667D01*
X80232381Y-94321429D01*
X80184762Y-94178571D01*
X80089524Y-94083333D01*
X79994286Y-94035714D01*
X79803810Y-93988095D01*
X79660952Y-93988095D01*
X79470476Y-94035714D01*
X79375238Y-94083333D01*
X79280000Y-94178571D01*
X79232381Y-94321429D01*
X79232381Y-94416667D01*
X79280000Y-94559524D01*
X79327619Y-94607143D01*
X79327619Y-94988095D02*
X79280000Y-95035714D01*
X79232381Y-95130952D01*
X79232381Y-95369048D01*
X79280000Y-95464286D01*
X79327619Y-95511905D01*
X79422857Y-95559524D01*
X79518095Y-95559524D01*
X79660952Y-95511905D01*
X80232381Y-94940476D01*
X80232381Y-95559524D01*
X79232381Y-96416667D02*
X79232381Y-96226190D01*
X79280000Y-96130952D01*
X79327619Y-96083333D01*
X79470476Y-95988095D01*
X79660952Y-95940476D01*
X80041905Y-95940476D01*
X80137143Y-95988095D01*
X80184762Y-96035714D01*
X80232381Y-96130952D01*
X80232381Y-96321429D01*
X80184762Y-96416667D01*
X80137143Y-96464286D01*
X80041905Y-96511905D01*
X79803810Y-96511905D01*
X79708571Y-96464286D01*
X79660952Y-96416667D01*
X79613333Y-96321429D01*
X79613333Y-96130952D01*
X79660952Y-96035714D01*
X79708571Y-95988095D01*
X79803810Y-95940476D01*
X81078343Y-96005734D02*
X81125962Y-95958115D01*
X81173581Y-95815258D01*
X81173581Y-95720020D01*
X81125962Y-95577162D01*
X81030724Y-95481924D01*
X80935486Y-95434305D01*
X80745010Y-95386686D01*
X80602152Y-95386686D01*
X80411676Y-95434305D01*
X80316438Y-95481924D01*
X80221200Y-95577162D01*
X80173581Y-95720020D01*
X80173581Y-95815258D01*
X80221200Y-95958115D01*
X80268819Y-96005734D01*
X81173581Y-96434305D02*
X80173581Y-96434305D01*
X80173581Y-96815258D01*
X80221200Y-96910496D01*
X80268819Y-96958115D01*
X80364057Y-97005734D01*
X80506914Y-97005734D01*
X80602152Y-96958115D01*
X80649771Y-96910496D01*
X80697390Y-96815258D01*
X80697390Y-96434305D01*
X81173581Y-97958115D02*
X81173581Y-97386686D01*
X81173581Y-97672400D02*
X80173581Y-97672400D01*
X80316438Y-97577162D01*
X80411676Y-97481924D01*
X80459295Y-97386686D01*
X76144429Y-93014848D02*
X76144429Y-93776753D01*
X76525381Y-93395801D02*
X75763476Y-93395801D01*
X104306666Y-94177381D02*
X104640000Y-93701190D01*
X104878095Y-94177381D02*
X104878095Y-93177381D01*
X104497142Y-93177381D01*
X104401904Y-93225000D01*
X104354285Y-93272619D01*
X104306666Y-93367857D01*
X104306666Y-93510714D01*
X104354285Y-93605952D01*
X104401904Y-93653571D01*
X104497142Y-93701190D01*
X104878095Y-93701190D01*
X103354285Y-94177381D02*
X103925714Y-94177381D01*
X103640000Y-94177381D02*
X103640000Y-93177381D01*
X103735238Y-93320238D01*
X103830476Y-93415476D01*
X103925714Y-93463095D01*
X101103181Y-137287095D02*
X101912705Y-137287095D01*
X102007943Y-137334714D01*
X102055562Y-137382333D01*
X102103181Y-137477571D01*
X102103181Y-137668048D01*
X102055562Y-137763286D01*
X102007943Y-137810905D01*
X101912705Y-137858524D01*
X101103181Y-137858524D01*
X102103181Y-138858524D02*
X102103181Y-138287095D01*
X102103181Y-138572809D02*
X101103181Y-138572809D01*
X101246038Y-138477571D01*
X101341276Y-138382333D01*
X101388895Y-138287095D01*
X109075600Y-138252296D02*
X109027981Y-138157058D01*
X109027981Y-138014201D01*
X109075600Y-137871343D01*
X109170838Y-137776105D01*
X109266076Y-137728486D01*
X109456552Y-137680867D01*
X109599410Y-137680867D01*
X109789886Y-137728486D01*
X109885124Y-137776105D01*
X109980362Y-137871343D01*
X110027981Y-138014201D01*
X110027981Y-138109439D01*
X109980362Y-138252296D01*
X109932743Y-138299915D01*
X109599410Y-138299915D01*
X109599410Y-138109439D01*
X110027981Y-138728486D02*
X109027981Y-138728486D01*
X110027981Y-139299915D01*
X109027981Y-139299915D01*
X110027981Y-139776105D02*
X109027981Y-139776105D01*
X109027981Y-140014200D01*
X109075600Y-140157058D01*
X109170838Y-140252296D01*
X109266076Y-140299915D01*
X109456552Y-140347534D01*
X109599410Y-140347534D01*
X109789886Y-140299915D01*
X109885124Y-140252296D01*
X109980362Y-140157058D01*
X110027981Y-140014200D01*
X110027981Y-139776105D01*
X107462581Y-135804353D02*
X107462581Y-135232924D01*
X107462581Y-135518638D02*
X106462581Y-135518638D01*
X106605438Y-135423400D01*
X106700676Y-135328162D01*
X106748295Y-135232924D01*
X106557819Y-136185305D02*
X106510200Y-136232924D01*
X106462581Y-136328162D01*
X106462581Y-136566258D01*
X106510200Y-136661496D01*
X106557819Y-136709115D01*
X106653057Y-136756734D01*
X106748295Y-136756734D01*
X106891152Y-136709115D01*
X107462581Y-136137686D01*
X107462581Y-136756734D01*
X106462581Y-137042448D02*
X107462581Y-137375781D01*
X106462581Y-137709115D01*
X107418143Y-140412934D02*
X107465762Y-140365315D01*
X107513381Y-140222458D01*
X107513381Y-140127220D01*
X107465762Y-139984362D01*
X107370524Y-139889124D01*
X107275286Y-139841505D01*
X107084810Y-139793886D01*
X106941952Y-139793886D01*
X106751476Y-139841505D01*
X106656238Y-139889124D01*
X106561000Y-139984362D01*
X106513381Y-140127220D01*
X106513381Y-140222458D01*
X106561000Y-140365315D01*
X106608619Y-140412934D01*
X107227667Y-140793886D02*
X107227667Y-141270077D01*
X107513381Y-140698648D02*
X106513381Y-141031981D01*
X107513381Y-141365315D01*
X107513381Y-141698648D02*
X106513381Y-141698648D01*
X107513381Y-142270077D01*
X106513381Y-142270077D01*
X107513381Y-142746267D02*
X106513381Y-142746267D01*
X106989571Y-142746267D02*
X106989571Y-143317696D01*
X107513381Y-143317696D02*
X106513381Y-143317696D01*
X104522543Y-137737981D02*
X104570162Y-137690362D01*
X104617781Y-137547505D01*
X104617781Y-137452267D01*
X104570162Y-137309409D01*
X104474924Y-137214171D01*
X104379686Y-137166552D01*
X104189210Y-137118933D01*
X104046352Y-137118933D01*
X103855876Y-137166552D01*
X103760638Y-137214171D01*
X103665400Y-137309409D01*
X103617781Y-137452267D01*
X103617781Y-137547505D01*
X103665400Y-137690362D01*
X103713019Y-137737981D01*
X104332067Y-138118933D02*
X104332067Y-138595124D01*
X104617781Y-138023695D02*
X103617781Y-138357028D01*
X104617781Y-138690362D01*
X104617781Y-139023695D02*
X103617781Y-139023695D01*
X104617781Y-139595124D01*
X103617781Y-139595124D01*
X104617781Y-140547505D02*
X104617781Y-140071314D01*
X103617781Y-140071314D01*
X85177381Y-140208095D02*
X85986905Y-140208095D01*
X86082143Y-140255714D01*
X86129762Y-140303333D01*
X86177381Y-140398571D01*
X86177381Y-140589048D01*
X86129762Y-140684286D01*
X86082143Y-140731905D01*
X85986905Y-140779524D01*
X85177381Y-140779524D01*
X85272619Y-141208095D02*
X85225000Y-141255714D01*
X85177381Y-141350952D01*
X85177381Y-141589048D01*
X85225000Y-141684286D01*
X85272619Y-141731905D01*
X85367857Y-141779524D01*
X85463095Y-141779524D01*
X85605952Y-141731905D01*
X86177381Y-141160476D01*
X86177381Y-141779524D01*
X106806905Y-135012181D02*
X106806905Y-135821705D01*
X106759286Y-135916943D01*
X106711667Y-135964562D01*
X106616429Y-136012181D01*
X106425952Y-136012181D01*
X106330714Y-135964562D01*
X106283095Y-135916943D01*
X106235476Y-135821705D01*
X106235476Y-135012181D01*
X105854524Y-135012181D02*
X105235476Y-135012181D01*
X105568810Y-135393133D01*
X105425952Y-135393133D01*
X105330714Y-135440752D01*
X105283095Y-135488371D01*
X105235476Y-135583610D01*
X105235476Y-135821705D01*
X105283095Y-135916943D01*
X105330714Y-135964562D01*
X105425952Y-136012181D01*
X105711667Y-136012181D01*
X105806905Y-135964562D01*
X105854524Y-135916943D01*
X41362381Y-105918095D02*
X42171905Y-105918095D01*
X42267143Y-105965714D01*
X42314762Y-106013333D01*
X42362381Y-106108571D01*
X42362381Y-106299048D01*
X42314762Y-106394286D01*
X42267143Y-106441905D01*
X42171905Y-106489524D01*
X41362381Y-106489524D01*
X41695714Y-107394286D02*
X42362381Y-107394286D01*
X41314762Y-107156190D02*
X42029048Y-106918095D01*
X42029048Y-107537143D01*
X73786905Y-122007381D02*
X73786905Y-122816905D01*
X73739286Y-122912143D01*
X73691667Y-122959762D01*
X73596429Y-123007381D01*
X73405952Y-123007381D01*
X73310714Y-122959762D01*
X73263095Y-122912143D01*
X73215476Y-122816905D01*
X73215476Y-122007381D01*
X72263095Y-122007381D02*
X72739286Y-122007381D01*
X72786905Y-122483571D01*
X72739286Y-122435952D01*
X72644048Y-122388333D01*
X72405952Y-122388333D01*
X72310714Y-122435952D01*
X72263095Y-122483571D01*
X72215476Y-122578810D01*
X72215476Y-122816905D01*
X72263095Y-122912143D01*
X72310714Y-122959762D01*
X72405952Y-123007381D01*
X72644048Y-123007381D01*
X72739286Y-122959762D01*
X72786905Y-122912143D01*
X73786905Y-111847381D02*
X73786905Y-112656905D01*
X73739286Y-112752143D01*
X73691667Y-112799762D01*
X73596429Y-112847381D01*
X73405952Y-112847381D01*
X73310714Y-112799762D01*
X73263095Y-112752143D01*
X73215476Y-112656905D01*
X73215476Y-111847381D01*
X72310714Y-111847381D02*
X72501191Y-111847381D01*
X72596429Y-111895000D01*
X72644048Y-111942619D01*
X72739286Y-112085476D01*
X72786905Y-112275952D01*
X72786905Y-112656905D01*
X72739286Y-112752143D01*
X72691667Y-112799762D01*
X72596429Y-112847381D01*
X72405952Y-112847381D01*
X72310714Y-112799762D01*
X72263095Y-112752143D01*
X72215476Y-112656905D01*
X72215476Y-112418810D01*
X72263095Y-112323571D01*
X72310714Y-112275952D01*
X72405952Y-112228333D01*
X72596429Y-112228333D01*
X72691667Y-112275952D01*
X72739286Y-112323571D01*
X72786905Y-112418810D01*
X73786905Y-101687381D02*
X73786905Y-102496905D01*
X73739286Y-102592143D01*
X73691667Y-102639762D01*
X73596429Y-102687381D01*
X73405952Y-102687381D01*
X73310714Y-102639762D01*
X73263095Y-102592143D01*
X73215476Y-102496905D01*
X73215476Y-101687381D01*
X72834524Y-101687381D02*
X72167857Y-101687381D01*
X72596429Y-102687381D01*
X94583095Y-83907381D02*
X94583095Y-84716905D01*
X94535476Y-84812143D01*
X94487857Y-84859762D01*
X94392619Y-84907381D01*
X94202142Y-84907381D01*
X94106904Y-84859762D01*
X94059285Y-84812143D01*
X94011666Y-84716905D01*
X94011666Y-83907381D01*
X93011666Y-84907381D02*
X93583095Y-84907381D01*
X93297381Y-84907381D02*
X93297381Y-83907381D01*
X93392619Y-84050238D01*
X93487857Y-84145476D01*
X93583095Y-84193095D01*
X92154523Y-83907381D02*
X92345000Y-83907381D01*
X92440238Y-83955000D01*
X92487857Y-84002619D01*
X92583095Y-84145476D01*
X92630714Y-84335952D01*
X92630714Y-84716905D01*
X92583095Y-84812143D01*
X92535476Y-84859762D01*
X92440238Y-84907381D01*
X92249761Y-84907381D01*
X92154523Y-84859762D01*
X92106904Y-84812143D01*
X92059285Y-84716905D01*
X92059285Y-84478810D01*
X92106904Y-84383571D01*
X92154523Y-84335952D01*
X92249761Y-84288333D01*
X92440238Y-84288333D01*
X92535476Y-84335952D01*
X92583095Y-84383571D01*
X92630714Y-84478810D01*
%LPC*%
D15*
X96520000Y-135525000D03*
X96520000Y-137525000D03*
X83185000Y-139970000D03*
X83185000Y-141970000D03*
X62230000Y-138160000D03*
X62230000Y-136160000D03*
X64770000Y-138160000D03*
X64770000Y-136160000D03*
X67310000Y-131175000D03*
X67310000Y-129175000D03*
X67310000Y-121015000D03*
X67310000Y-119015000D03*
X67310000Y-110855000D03*
X67310000Y-108855000D03*
X78105000Y-131175000D03*
X78105000Y-129175000D03*
X78105000Y-121015000D03*
X78105000Y-119015000D03*
X78105000Y-110855000D03*
X78105000Y-108855000D03*
X80645000Y-131175000D03*
X80645000Y-129175000D03*
X80645000Y-121015000D03*
X80645000Y-119015000D03*
X80645000Y-110855000D03*
X80645000Y-108855000D03*
X81280000Y-94250000D03*
X81280000Y-96250000D03*
D16*
X74930000Y-93345000D03*
X74930000Y-97845000D03*
D17*
X103190000Y-92075000D03*
X105090000Y-92075000D03*
D18*
X106045000Y-139065000D03*
X108585000Y-141605000D03*
X111125000Y-139065000D03*
X108585000Y-136525000D03*
D19*
X87850000Y-142875000D03*
X87850000Y-141605000D03*
X87850000Y-140335000D03*
X87850000Y-139065000D03*
X93150000Y-139065000D03*
X93150000Y-140335000D03*
X93150000Y-141605000D03*
X93150000Y-142875000D03*
D20*
X111125000Y-128905000D03*
X108585000Y-128905000D03*
X106045000Y-128905000D03*
X44450000Y-134620000D03*
X44450000Y-132080000D03*
X44450000Y-129540000D03*
X44450000Y-127000000D03*
X44450000Y-124460000D03*
X44450000Y-121920000D03*
X44450000Y-119380000D03*
X44450000Y-116840000D03*
X44450000Y-114300000D03*
X44450000Y-111760000D03*
X44450000Y-109220000D03*
X44450000Y-106680000D03*
X44450000Y-104140000D03*
X44450000Y-101600000D03*
X44450000Y-99060000D03*
X44450000Y-96520000D03*
X44450000Y-93980000D03*
X44450000Y-91440000D03*
X44450000Y-88900000D03*
X44450000Y-86360000D03*
X44450000Y-83820000D03*
X44450000Y-81280000D03*
X44450000Y-78740000D03*
X44450000Y-76200000D03*
X59690000Y-76200000D03*
X59690000Y-78740000D03*
X59690000Y-81280000D03*
X59690000Y-83820000D03*
X59690000Y-86360000D03*
X59690000Y-88900000D03*
X59690000Y-91440000D03*
X59690000Y-93980000D03*
X59690000Y-96520000D03*
X59690000Y-99060000D03*
X59690000Y-101600000D03*
X59690000Y-104140000D03*
X59690000Y-106680000D03*
X59690000Y-109220000D03*
X59690000Y-111760000D03*
X59690000Y-114300000D03*
X59690000Y-116840000D03*
X59690000Y-119380000D03*
X59690000Y-121920000D03*
X59690000Y-124460000D03*
X59690000Y-127000000D03*
X59690000Y-129540000D03*
X59690000Y-132080000D03*
X59690000Y-134620000D03*
D21*
X69815000Y-127620000D03*
X69815000Y-126970000D03*
X69815000Y-126320000D03*
X69815000Y-125670000D03*
X69815000Y-125020000D03*
X69815000Y-124370000D03*
X69815000Y-123720000D03*
X75565000Y-123720000D03*
X75565000Y-124370000D03*
X75565000Y-125020000D03*
X75565000Y-125670000D03*
X75565000Y-126320000D03*
X75565000Y-126970000D03*
X75565000Y-127620000D03*
X69815000Y-117460000D03*
X69815000Y-116810000D03*
X69815000Y-116160000D03*
X69815000Y-115510000D03*
X69815000Y-114860000D03*
X69815000Y-114210000D03*
X69815000Y-113560000D03*
X75565000Y-113560000D03*
X75565000Y-114210000D03*
X75565000Y-114860000D03*
X75565000Y-115510000D03*
X75565000Y-116160000D03*
X75565000Y-116810000D03*
X75565000Y-117460000D03*
X69815000Y-107300000D03*
X69815000Y-106650000D03*
X69815000Y-106000000D03*
X69815000Y-105350000D03*
X69815000Y-104700000D03*
X69815000Y-104050000D03*
X69815000Y-103400000D03*
X75565000Y-103400000D03*
X75565000Y-104050000D03*
X75565000Y-104700000D03*
X75565000Y-105350000D03*
X75565000Y-106000000D03*
X75565000Y-106650000D03*
X75565000Y-107300000D03*
D22*
X87630000Y-100330000D03*
X87630000Y-99060000D03*
X87630000Y-97790000D03*
X87630000Y-96520000D03*
X87630000Y-95250000D03*
X87630000Y-93980000D03*
X87630000Y-92710000D03*
X87630000Y-91440000D03*
X87630000Y-90170000D03*
X87630000Y-88900000D03*
X87630000Y-87630000D03*
X87630000Y-86360000D03*
X97003000Y-86360000D03*
X97003000Y-87630000D03*
X97003000Y-88900000D03*
X97003000Y-90170000D03*
X97003000Y-91440000D03*
X97003000Y-92710000D03*
X97003000Y-93980000D03*
X97003000Y-95250000D03*
X97003000Y-96520000D03*
X97003000Y-97790000D03*
X97003000Y-99060000D03*
X97003000Y-100330000D03*
D20*
X111760000Y-109220000D03*
X114300000Y-109220000D03*
X116840000Y-109220000D03*
X119380000Y-109220000D03*
X121920000Y-109220000D03*
X124460000Y-109220000D03*
X127000000Y-109220000D03*
X129540000Y-109220000D03*
X132080000Y-109220000D03*
X134620000Y-109220000D03*
X137160000Y-109220000D03*
X139700000Y-109220000D03*
X142240000Y-109220000D03*
X144780000Y-109220000D03*
X147320000Y-109220000D03*
X149860000Y-109220000D03*
X152400000Y-109220000D03*
X154940000Y-109220000D03*
X154940000Y-93980000D03*
X152400000Y-93980000D03*
X149860000Y-93980000D03*
X147320000Y-93980000D03*
X144780000Y-93980000D03*
X142240000Y-93980000D03*
X139700000Y-93980000D03*
X137160000Y-93980000D03*
X134620000Y-93980000D03*
X132080000Y-93980000D03*
X129540000Y-93980000D03*
X127000000Y-93980000D03*
X124460000Y-93980000D03*
X121920000Y-93980000D03*
X119380000Y-93980000D03*
X116840000Y-93980000D03*
X114300000Y-93980000D03*
X111760000Y-93980000D03*
X86360000Y-109140000D03*
X88900000Y-109140000D03*
X91440000Y-109140000D03*
X93980000Y-109140000D03*
X96520000Y-109140000D03*
X96520000Y-78740000D03*
X93980000Y-78740000D03*
X91440000Y-78740000D03*
X88900000Y-78740000D03*
X86360000Y-78740000D03*
M02*
