M48
;DRILL file {KiCad 4.0.6} date 06/14/17 00:59:13
;FORMAT={3:3/ absolute / metric / suppress trailing zeros}
FMAT,2
METRIC,LZ
T1C0.400
T2C0.762
T3C0.800
T4C1.000
T5C1.016
%
G90
G05
M71
T1
X0508Y-06223
X05969Y-062865
X06223Y-1397
X062865Y-090805
X062865Y-109855
X062865Y-12319
X064008Y-107442
X06477Y-12954
X06477Y-1397
X065405Y-103505
X066675Y-10668
X06731Y-062865
X06731Y-112395
X06731Y-122555
X06731Y-13335
X067945Y-113665
X067945Y-123825
X07112Y-099695
X07239Y-085725
X07493Y-12192
X0762Y-0635
X0762Y-112395
X07747Y-09017
X078105Y-13335
X07874Y-123825
X079375Y-103505
X079375Y-113665
X08001Y-14224
X080645Y-112395
X080645Y-13335
X081915Y-107315
X08255Y-10287
X08255Y-106045
X083185Y-121285
X08382Y-062865
X084455Y-08509
X08509Y-09017
X08509Y-09271
X08509Y-09398
X08509Y-106045
X085725Y-09779
X085725Y-09906
X0889Y-104775
X0889Y-12827
X09144Y-082804
X09271Y-062865
X095885Y-14351
X09652Y-084455
X09652Y-13335
X097155Y-083185
X09906Y-078105
X09906Y-0889
X099695Y-084455
X10033Y-062865
X100584Y-098044
X100965Y-0889
X101092Y-103886
X10668Y-085725
X107315Y-09017
X108585Y-097155
X10922Y-062865
X111125Y-112395
X1143Y-1016
X11684Y-062865
X11684Y-083185
X117348Y-127
X120015Y-136525
X121285Y-08763
X123825Y-097155
X12573Y-062865
X12573Y-107315
X12827Y-104902
X130175Y-080645
X131445Y-097155
X13335Y-062865
X135255Y-081915
X136525Y-125095
X1397Y-136525
X14224Y-062865
X145288Y-104902
X147955Y-097155
X149225Y-062865
X15367Y-12319
X158115Y-062865
X159385Y-136525
X16637Y-062865
X17272Y-121285
X173355Y-104775
X17526Y-062865
X1778Y-136525
X178435Y-092075
X178435Y-1143
X179705Y-07747
T2
X106045Y-139065
X108585Y-136525
X108585Y-141605
X111125Y-139065
T3
X07493Y-093345
X07493Y-097845
T4
X08636Y-07874
X08636Y-10914
X0889Y-07874
X0889Y-10914
X09144Y-07874
X09144Y-10914
X09398Y-07874
X09398Y-10914
X09652Y-07874
X09652Y-10914
X106045Y-128905
X108585Y-128905
X111125Y-128905
X11176Y-09398
X11176Y-10922
X1143Y-09398
X1143Y-10922
X11684Y-09398
X11684Y-10922
X11938Y-09398
X11938Y-10922
X12192Y-09398
X12192Y-10922
X12446Y-09398
X12446Y-10922
X127Y-09398
X127Y-10922
X12954Y-09398
X12954Y-10922
X13208Y-09398
X13208Y-10922
X13462Y-09398
X13462Y-10922
X13716Y-09398
X13716Y-10922
X1397Y-09398
X1397Y-10922
X14224Y-09398
X14224Y-10922
X14478Y-09398
X14478Y-10922
X14732Y-09398
X14732Y-10922
X14986Y-09398
X14986Y-10922
X1524Y-09398
X1524Y-10922
X15494Y-09398
X15494Y-10922
T5
X04445Y-0762
X04445Y-07874
X04445Y-08128
X04445Y-08382
X04445Y-08636
X04445Y-0889
X04445Y-09144
X04445Y-09398
X04445Y-09652
X04445Y-09906
X04445Y-1016
X04445Y-10414
X04445Y-10668
X04445Y-10922
X04445Y-11176
X04445Y-1143
X04445Y-11684
X04445Y-11938
X04445Y-12192
X04445Y-12446
X04445Y-127
X04445Y-12954
X04445Y-13208
X04445Y-13462
X05969Y-0762
X05969Y-07874
X05969Y-08128
X05969Y-08382
X05969Y-08636
X05969Y-0889
X05969Y-09144
X05969Y-09398
X05969Y-09652
X05969Y-09906
X05969Y-1016
X05969Y-10414
X05969Y-10668
X05969Y-10922
X05969Y-11176
X05969Y-1143
X05969Y-11684
X05969Y-11938
X05969Y-12192
X05969Y-12446
X05969Y-127
X05969Y-12954
X05969Y-13208
X05969Y-13462
T0
M30
